0
SECTION
2
HEADER
9
$INSUNITS
70
4
9
$ACADVER
1
AC1014
9
$HANDSEED
5
FFFF
0
ENDSEC
0
SECTION
2
TABLES
0
TABLE
2
VPORT
5
8
100
AcDbSymbolTable
0
ENDTAB
0
TABLE
2
LTYPE
5
5
100
AcDbSymbolTable
0
LTYPE
5
14
100
AcDbSymbolTableRecord
100
AcDbLinetypeTableRecord
2
BYBLOCK
70
0
0
LTYPE
5
15
100
AcDbSymbolTableRecord
100
AcDbLinetypeTableRecord
2
BYLAYER
70
0
0
ENDTAB
0
TABLE
2
LAYER
5
2
100
AcDbSymbolTable
70
2
0
LAYER
5
50
100
AcDbSymbolTableRecord
100
AcDbLayerTableRecord
2
0
70
0
6
CONTINUOUS
0
ENDTAB
0
TABLE
2
STYLE
5
3
100
AcDbSymbolTable
70
1
0
STYLE
5
11
100
AcDbSymbolTableRecord
100
AcDbTextStyleTableRecord
2
STANDARD
70
0
0
ENDTAB
0
TABLE
2
VIEW
5
6
100
AcDbSymbolTable
70
0
0
ENDTAB
0
TABLE
2
UCS
5
7
100
AcDbSymbolTable
70
0
0
ENDTAB
0
TABLE
2
APPID
5
9
100
AcDbSymbolTable
70
2
0
APPID
5
12
100
AcDbSymbolTableRecord
100
AcDbRegAppTableRecord
2
ACAD
70
0
0
ENDTAB
0
TABLE
2
DIMSTYLE
5
A
100
AcDbSymbolTable
70
1
0
ENDTAB
0
TABLE
2
BLOCK_RECORD
5
1
100
AcDbSymbolTable
70
1
0
BLOCK_RECORD
5
1F
100
AcDbSymbolTableRecord
100
AcDbBlockTableRecord
2
*MODEL_SPACE
0
BLOCK_RECORD
5
1B
100
AcDbSymbolTableRecord
100
AcDbBlockTableRecord
2
*PAPER_SPACE
0
ENDTAB
0
ENDSEC
0
SECTION
2
BLOCKS
0
BLOCK
5
20
100
AcDbEntity
100
AcDbBlockBegin
2
*MODEL_SPACE
0
ENDBLK
5
21
100
AcDbEntity
100
AcDbBlockEnd
0
BLOCK
5
1C
100
AcDbEntity
100
AcDbBlockBegin
2
*PAPER_SPACE
0
ENDBLK
5
1D
100
AcDbEntity
100
AcDbBlockEnd
0
ENDSEC
0
SECTION
2
ENTITIES
0
CIRCLE
5
100
100
AcDbEntity
8
0
100
AcDbCircle
10
99
20
57.499999999999986
30
0
40
2.1000000000000085
210
0
220
-0
230
1
0
CIRCLE
5
101
100
AcDbEntity
8
0
100
AcDbCircle
10
-51
20
57.499999999999986
30
0
40
2.0999999999999996
210
0
220
-0
230
1
0
CIRCLE
5
102
100
AcDbEntity
8
0
100
AcDbCircle
10
99
20
7.4999999999999822
30
0
40
2.0999999999999908
210
0
220
-0
230
1
0
CIRCLE
5
103
100
AcDbEntity
8
0
100
AcDbCircle
10
-51
20
7.4999999999999822
30
0
40
2.0999999999999996
210
0
220
-0
230
1
0
LWPOLYLINE
5
104
100
AcDbEntity
8
0
100
AcDbPolyline
90
8
70
1
43
0.0
10
-112.99999999999999
20
-85
10
113.00000000000003
20
-85
42
0.41421356237309509
10
115.00000000000003
20
-83
10
115
20
82.999999999999972
42
0.41421356237309509
10
112.99999999999999
20
84.999999999999972
10
-113.00000000000003
20
84.999999999999972
42
0.41421356237309509
10
-115.00000000000003
20
82.999999999999972
10
-115
20
-83
42
0.41421356237309509
0
LWPOLYLINE
5
105
100
AcDbEntity
8
0
100
AcDbPolyline
90
4
70
1
43
0.0
10
32.499999999999865
20
-75.800000000000011
42
0.99999999999999989
10
32.499999999999865
20
-79.200000000000003
10
36.499999999999865
20
-79.200000000000003
42
0.99999999999999989
10
36.499999999999865
20
-75.800000000000011
0
LWPOLYLINE
5
106
100
AcDbEntity
8
0
100
AcDbPolyline
90
4
70
1
43
0.0
10
32.499999999999865
20
1.6999999999999753
42
0.99999999999999989
10
32.499999999999858
20
-1.7000000000000108
10
36.499999999999865
20
-1.7000000000000108
42
0.99999999999999989
10
36.499999999999865
20
1.6999999999999753
0
LWPOLYLINE
5
107
100
AcDbEntity
8
0
100
AcDbPolyline
90
4
70
1
43
0.0
10
-36.499999999999865
20
64.699999999999974
42
0.99999999999999989
10
-36.499999999999872
20
61.299999999999997
10
-32.499999999999865
20
61.299999999999997
42
0.99999999999999989
10
-32.499999999999865
20
64.699999999999974
0
LWPOLYLINE
5
108
100
AcDbEntity
8
0
100
AcDbPolyline
90
4
70
1
43
0.0
10
32.499999999999865
20
64.699999999999974
42
0.99999999999999989
10
32.499999999999851
20
61.299999999999997
10
36.499999999999865
20
61.299999999999997
42
0.99999999999999989
10
36.499999999999865
20
64.699999999999974
0
LWPOLYLINE
5
109
100
AcDbEntity
8
0
100
AcDbPolyline
90
4
70
1
43
0.0
10
-36.499999999999865
20
1.6999999999999753
42
0.99999999999999989
10
-36.499999999999865
20
-1.7000000000000108
10
-32.499999999999865
20
-1.7000000000000108
42
0.99999999999999989
10
-32.499999999999865
20
1.6999999999999753
0
LWPOLYLINE
5
110
100
AcDbEntity
8
0
100
AcDbPolyline
90
4
70
1
43
0.0
10
-36.499999999999865
20
-75.800000000000011
42
0.99999999999999989
10
-36.499999999999858
20
-79.200000000000003
10
-32.499999999999865
20
-79.200000000000003
42
0.99999999999999989
10
-32.499999999999865
20
-75.800000000000011
0
ENDSEC
0
SECTION
2
OBJECTS
0
DICTIONARY
5
C
100
AcDbDictionary
3
ACAD_GROUP
350
D
3
ACAD_MLINESTYLE
350
17
0
DICTIONARY
5
D
100
AcDbDictionary
0
DICTIONARY
5
1A
330
C
100
AcDbDictionary
0
DICTIONARY
5
17
100
AcDbDictionary
0
ENDSEC
0
EOF
