0
SECTION
2
HEADER
9
$INSUNITS
70
4
9
$ACADVER
1
AC1014
9
$HANDSEED
5
FFFF
0
ENDSEC
0
SECTION
2
TABLES
0
TABLE
2
VPORT
5
8
100
AcDbSymbolTable
0
ENDTAB
0
TABLE
2
LTYPE
5
5
100
AcDbSymbolTable
0
LTYPE
5
14
100
AcDbSymbolTableRecord
100
AcDbLinetypeTableRecord
2
BYBLOCK
70
0
0
LTYPE
5
15
100
AcDbSymbolTableRecord
100
AcDbLinetypeTableRecord
2
BYLAYER
70
0
0
ENDTAB
0
TABLE
2
LAYER
5
2
100
AcDbSymbolTable
70
2
0
LAYER
5
50
100
AcDbSymbolTableRecord
100
AcDbLayerTableRecord
2
0
70
0
6
CONTINUOUS
0
ENDTAB
0
TABLE
2
STYLE
5
3
100
AcDbSymbolTable
70
1
0
STYLE
5
11
100
AcDbSymbolTableRecord
100
AcDbTextStyleTableRecord
2
STANDARD
70
0
0
ENDTAB
0
TABLE
2
VIEW
5
6
100
AcDbSymbolTable
70
0
0
ENDTAB
0
TABLE
2
UCS
5
7
100
AcDbSymbolTable
70
0
0
ENDTAB
0
TABLE
2
APPID
5
9
100
AcDbSymbolTable
70
2
0
APPID
5
12
100
AcDbSymbolTableRecord
100
AcDbRegAppTableRecord
2
ACAD
70
0
0
ENDTAB
0
TABLE
2
DIMSTYLE
5
A
100
AcDbSymbolTable
70
1
0
ENDTAB
0
TABLE
2
BLOCK_RECORD
5
1
100
AcDbSymbolTable
70
1
0
BLOCK_RECORD
5
1F
100
AcDbSymbolTableRecord
100
AcDbBlockTableRecord
2
*MODEL_SPACE
0
BLOCK_RECORD
5
1B
100
AcDbSymbolTableRecord
100
AcDbBlockTableRecord
2
*PAPER_SPACE
0
ENDTAB
0
ENDSEC
0
SECTION
2
BLOCKS
0
BLOCK
5
20
100
AcDbEntity
100
AcDbBlockBegin
2
*MODEL_SPACE
0
ENDBLK
5
21
100
AcDbEntity
100
AcDbBlockEnd
0
BLOCK
5
1C
100
AcDbEntity
100
AcDbBlockBegin
2
*PAPER_SPACE
0
ENDBLK
5
1D
100
AcDbEntity
100
AcDbBlockEnd
0
ENDSEC
0
SECTION
2
ENTITIES
0
LWPOLYLINE
5
100
100
AcDbEntity
8
0
100
AcDbPolyline
90
48
70
1
43
0.0
10
10.812177826491061
20
-6.8197640478403541
10
7.2810889132455205
20
-8.8584391824351645
42
-0.57735026918962551
10
6.5310889132455152
20
-8.4254264805429422
10
6.5310889132455285
20
4.6726497308103667
42
0.26794919243111998
10
6.0310889132455294
20
5.5386751345948078
10
3.781088913245525
20
6.8377132402714667
42
0.57735026918962562
10
3.0310889132455272
20
6.4047005383792488
10
3.0310889132455241
20
2.2499999999999942
42
-0.41421356237309598
10
2.5310889132455245
20
1.7499999999999938
10
-2.5310889132455476
20
1.7499999999999971
42
-0.41421356237309453
10
-3.0310889132455476
20
2.2499999999999969
10
-3.031088913245541
20
14.487604307034008
42
0.57735026918962484
10
-3.7810889132455405
20
14.920617008926225
10
-14.31217782649107
20
8.8404899900040377
42
0.26794919243111975
10
-14.812177826491071
20
7.9744645862195975
10
-14.812177826491071
20
-7.9744645862195949
42
0.26794919243112053
10
-14.312177826491068
20
-8.8404899900040377
10
-3.7810889132455294
20
-14.920617008926239
42
0.57735026918962762
10
-3.0310889132455321
20
-14.487604307034021
10
-3.0310889132455321
20
-11.889528095680692
42
0.26794919243112336
10
-3.5310889132455401
20
-11.023502691896258
10
-10.812177826491073
20
-6.8197640478403443
42
-0.26794919243111864
10
-11.312177826491075
20
-5.9537386440559024
10
-11.31217782649107
20
5.953738644055905
42
-0.26794919243111931
10
-10.81217782649107
20
6.8197640478403487
10
-7.2810889132455392
20
8.8584391824351556
42
-0.57735026918962118
10
-6.5310889132455436
20
8.4254264805429315
10
-6.5310889132455463
20
-4.6726497308103756
42
0.26794919243112214
10
-6.0310889132455454
20
-5.5386751345948158
10
-3.7810889132455521
20
-6.8377132402714738
42
0.57735026918962817
10
-3.0310889132455481
20
-6.4047005383792532
10
-3.0310889132455481
20
-2.2500000000000018
42
-0.4142135623730947
10
-2.5310889132455467
20
-1.7500000000000031
10
2.5310889132455205
20
-1.7500000000000049
42
-0.41421356237309637
10
3.031088913245521
20
-2.2500000000000053
10
3.0310889132455143
20
-14.487604307034017
42
0.57735026918962939
10
3.7810889132455179
20
-14.920617008926238
10
14.312177826491062
20
-8.8404899900040501
42
0.26794919243112308
10
14.812177826491055
20
-7.9744645862196153
10
14.812177826491071
20
7.974464586219586
42
0.26794919243112236
10
14.312177826491068
20
8.8404899900040252
10
3.7810889132455117
20
14.920617008926239
42
0.57735026918962529
10
3.0310889132455121
20
14.487604307034021
10
3.0310889132455205
20
11.889528095680696
42
0.26794919243112092
10
3.5310889132455174
20
11.023502691896264
10
10.812177826491062
20
6.8197640478403363
42
-0.26794919243111992
10
11.312177826491062
20
5.953738644055897
10
11.312177826491061
20
-5.9537386440559192
42
-0.2679491924311263
0
ENDSEC
0
SECTION
2
OBJECTS
0
DICTIONARY
5
C
100
AcDbDictionary
3
ACAD_GROUP
350
D
3
ACAD_MLINESTYLE
350
17
0
DICTIONARY
5
D
100
AcDbDictionary
0
DICTIONARY
5
1A
330
C
100
AcDbDictionary
0
DICTIONARY
5
17
100
AcDbDictionary
0
ENDSEC
0
EOF
